<svg width="107" height="24" viewBox="0 0 107 24" fill="none" xmlns="http://www.w3.org/2000/svg">
<g clip-path="url(#clip0_3013_70336)">
<path d="M12 12H0V0C6.6269 0 12 5.3731 12 12Z" fill="#1AE6AF"/>
<path d="M12 12H0V24H12V12Z" fill="#1AE6AF"/>
<path d="M24 24H12V12C18.6269 12 24 17.3731 24 24Z" fill="#03A2F4"/>
</g>
<path d="M31.296 5.932H33.648V15.524H38.672V17.5H31.296V5.932ZM42.5864 9.228V17.5H40.3544V9.228H42.5864ZM42.6104 5.94V8.044H40.3384V5.94H42.6104ZM48.4726 20.236C47.0006 20.236 45.8806 20.0493 45.1126 19.676C44.35 19.3027 43.9686 18.812 43.9686 18.204C43.9686 17.9213 44.0433 17.684 44.1926 17.492C44.342 17.3 44.5153 17.148 44.7126 17.036C44.9153 16.9187 45.0993 16.8307 45.2646 16.772C45.4353 16.708 45.5393 16.6653 45.5766 16.644C45.4913 16.596 45.3686 16.5267 45.2086 16.436C45.0486 16.34 44.8993 16.212 44.7606 16.052C44.6273 15.8867 44.5606 15.6733 44.5606 15.412C44.5606 15.1187 44.6993 14.8467 44.9766 14.596C45.2593 14.3453 45.686 14.172 46.2566 14.076C45.7126 13.82 45.2993 13.4733 45.0166 13.036C44.734 12.5987 44.5926 12.1507 44.5926 11.692C44.5926 11.148 44.7633 10.6813 45.1046 10.292C45.446 9.90267 45.91 9.60667 46.4966 9.404C47.0886 9.20133 47.758 9.1 48.5046 9.1C49.0753 9.1 49.542 9.16133 49.9046 9.284C50.2673 9.40133 50.6033 9.556 50.9126 9.748C51.0353 9.7 51.198 9.63867 51.4006 9.564C51.6033 9.484 51.822 9.39867 52.0566 9.308C52.2913 9.212 52.5206 9.11867 52.7446 9.028C52.9686 8.932 53.1686 8.84667 53.3446 8.772L53.3366 10.58L51.9046 10.812C51.9633 10.956 52.0086 11.1107 52.0406 11.276C52.0726 11.4413 52.0886 11.5773 52.0886 11.684C52.0886 12.164 51.9473 12.612 51.6646 13.028C51.3873 13.444 50.9686 13.78 50.4086 14.036C49.854 14.292 49.166 14.42 48.3446 14.42C48.2433 14.42 48.1073 14.4173 47.9366 14.412C47.7713 14.4067 47.6353 14.3987 47.5286 14.388C47.214 14.404 46.998 14.444 46.8806 14.508C46.7633 14.572 46.7046 14.6467 46.7046 14.732C46.7046 14.86 46.8246 14.9453 47.0646 14.988C47.3046 15.0253 47.6673 15.06 48.1526 15.092C48.3233 15.1027 48.5606 15.116 48.8646 15.132C49.1686 15.148 49.5046 15.1693 49.8726 15.196C50.886 15.2653 51.6406 15.516 52.1366 15.948C52.638 16.3747 52.8886 16.9133 52.8886 17.564C52.8886 18.3373 52.5206 18.9747 51.7846 19.476C51.054 19.9827 49.95 20.236 48.4726 20.236ZM48.8486 18.932C49.4993 18.932 49.9633 18.852 50.2406 18.692C50.518 18.532 50.6566 18.3027 50.6566 18.004C50.6566 17.7533 50.55 17.5507 50.3366 17.396C50.1233 17.236 49.8113 17.1427 49.4006 17.116L47.5046 16.988C47.2593 16.9773 47.0406 17.0147 46.8486 17.1C46.662 17.1853 46.5153 17.3027 46.4086 17.452C46.3073 17.6013 46.2566 17.7613 46.2566 17.932C46.2566 18.2787 46.4673 18.532 46.8886 18.692C47.31 18.852 47.9633 18.932 48.8486 18.932ZM48.4086 13.116C48.8513 13.116 49.206 12.996 49.4726 12.756C49.7446 12.5107 49.8806 12.18 49.8806 11.764C49.8806 11.332 49.7446 10.9853 49.4726 10.724C49.206 10.4627 48.8513 10.332 48.4086 10.332C47.9713 10.332 47.614 10.4627 47.3366 10.724C47.0646 10.9853 46.9286 11.332 46.9286 11.764C46.9286 12.1747 47.0593 12.5027 47.3206 12.748C47.5873 12.9933 47.95 13.116 48.4086 13.116ZM54.6875 17.5V5.612H57.0075V10.42C57.1408 10.228 57.3088 10.0387 57.5115 9.852C57.7142 9.66 57.9675 9.5 58.2715 9.372C58.5755 9.244 58.9462 9.18 59.3835 9.18C59.9115 9.18 60.3915 9.284 60.8235 9.492C61.2608 9.69467 61.6102 9.99067 61.8715 10.38C62.1382 10.7693 62.2715 11.244 62.2715 11.804V17.5H59.9275V12.148C59.9275 11.7747 59.7915 11.4893 59.5195 11.292C59.2528 11.0893 58.9275 10.988 58.5435 10.988C58.2928 10.988 58.0502 11.0333 57.8155 11.124C57.5808 11.2147 57.3888 11.3533 57.2395 11.54C57.0955 11.7213 57.0235 11.948 57.0235 12.22V17.5H54.6875ZM68.8525 10.852H67.0125L67.0285 15.26C67.0285 15.4627 67.0525 15.6147 67.1005 15.716C67.1538 15.812 67.2338 15.876 67.3405 15.908C67.4525 15.9347 67.5938 15.948 67.7645 15.948H68.8765V17.388C68.7698 17.436 68.6018 17.4813 68.3725 17.524C68.1485 17.5667 67.8338 17.588 67.4285 17.588C66.7032 17.588 66.1405 17.4947 65.7405 17.308C65.3458 17.1213 65.0712 16.86 64.9165 16.524C64.7618 16.188 64.6845 15.7987 64.6845 15.356V10.852H63.3405V9.228H64.7645L65.3485 6.732H67.0125V9.22H68.8525V10.852ZM76.3688 17.66C75.8408 17.66 75.3661 17.5613 74.9448 17.364C74.5234 17.1667 74.1901 16.8813 73.9448 16.508C73.6994 16.1293 73.5768 15.6707 73.5768 15.132C73.5768 14.2253 73.9154 13.5373 74.5928 13.068C75.2701 12.5933 76.3394 12.348 77.8008 12.332L78.8328 12.316V11.82C78.8328 11.4413 78.7208 11.1507 78.4968 10.948C78.2781 10.74 77.9368 10.6387 77.4728 10.644C77.1314 10.6493 76.8061 10.7293 76.4968 10.884C76.1928 11.0387 75.9848 11.308 75.8728 11.692H73.9288C73.9608 11.0947 74.1341 10.604 74.4488 10.22C74.7634 9.83067 75.1901 9.54267 75.7288 9.356C76.2728 9.164 76.8888 9.068 77.5768 9.068C78.4248 9.068 79.1048 9.17467 79.6168 9.388C80.1288 9.596 80.4994 9.89733 80.7288 10.292C80.9581 10.6813 81.0728 11.1453 81.0728 11.684V17.5H79.1208L78.9288 16.076C78.6461 16.6733 78.2914 17.0867 77.8648 17.316C77.4434 17.5453 76.9448 17.66 76.3688 17.66ZM77.1528 16.124C77.3661 16.124 77.5714 16.0867 77.7688 16.012C77.9714 15.932 78.1501 15.828 78.3048 15.7C78.4648 15.5667 78.5928 15.4173 78.6888 15.252C78.7848 15.0867 78.8328 14.916 78.8328 14.74V13.516L77.9928 13.532C77.6034 13.5373 77.2408 13.5853 76.9048 13.676C76.5688 13.7613 76.2968 13.9027 76.0888 14.1C75.8861 14.2973 75.7848 14.564 75.7848 14.9C75.7848 15.284 75.9181 15.5853 76.1848 15.804C76.4514 16.0173 76.7741 16.124 77.1528 16.124ZM87.7486 17.66C87.338 17.66 86.9833 17.6067 86.6846 17.5C86.386 17.3933 86.1326 17.252 85.9246 17.076C85.7166 16.8947 85.546 16.6947 85.4126 16.476C85.2793 16.2573 85.1753 16.0333 85.1006 15.804L84.8366 17.5H83.1406V5.612H85.4846V10.348C85.586 10.172 85.7166 10.0067 85.8766 9.852C86.0366 9.69733 86.2233 9.56133 86.4366 9.444C86.65 9.32667 86.8846 9.236 87.1406 9.172C87.402 9.10267 87.6793 9.068 87.9726 9.068C89.002 9.068 89.8073 9.43867 90.3886 10.18C90.9753 10.9213 91.2686 11.9667 91.2686 13.316C91.2686 14.1907 91.1353 14.9533 90.8686 15.604C90.602 16.2547 90.2073 16.7613 89.6846 17.124C89.162 17.4813 88.5166 17.66 87.7486 17.66ZM87.2366 15.98C87.738 15.98 88.154 15.7747 88.4846 15.364C88.8206 14.948 88.9886 14.2547 88.9886 13.284C88.9886 12.4253 88.8286 11.7907 88.5086 11.38C88.194 10.9693 87.7646 10.764 87.2206 10.764C86.8313 10.764 86.5086 10.8573 86.2526 11.044C85.9966 11.2253 85.8046 11.5027 85.6766 11.876C85.554 12.2493 85.49 12.7187 85.4846 13.284C85.4846 14.26 85.6286 14.9533 85.9166 15.364C86.21 15.7747 86.65 15.98 87.2366 15.98ZM95.4681 17.644C94.8601 17.644 94.3775 17.572 94.0201 17.428C93.6628 17.284 93.3988 17.0947 93.2281 16.86C93.0575 16.62 92.9481 16.356 92.9001 16.068C92.8521 15.7747 92.8281 15.4787 92.8281 15.18V5.612H95.1161V14.892C95.1161 15.196 95.1801 15.444 95.3081 15.636C95.4415 15.8227 95.6895 15.9373 96.0521 15.98L96.4441 16.004V17.444C96.2841 17.4973 96.1215 17.5427 95.9561 17.58C95.7908 17.6227 95.6281 17.644 95.4681 17.644ZM99.8575 13.9C99.8522 14.3213 99.9188 14.6893 100.058 15.004C100.196 15.3133 100.396 15.5533 100.658 15.724C100.924 15.8893 101.244 15.972 101.618 15.972C102.018 15.972 102.367 15.8867 102.666 15.716C102.97 15.5453 103.18 15.2653 103.298 14.876H105.402C105.311 15.4627 105.076 15.964 104.698 16.38C104.324 16.796 103.871 17.1133 103.338 17.332C102.804 17.5507 102.25 17.66 101.674 17.66C100.858 17.66 100.138 17.4893 99.5135 17.148C98.8948 16.8013 98.4122 16.3133 98.0655 15.684C97.7188 15.0547 97.5455 14.3133 97.5455 13.46C97.5455 12.6333 97.7028 11.8893 98.0175 11.228C98.3322 10.5613 98.7882 10.036 99.3855 9.652C99.9882 9.26267 100.711 9.068 101.554 9.068C102.396 9.068 103.103 9.24667 103.674 9.604C104.25 9.956 104.682 10.4493 104.97 11.084C105.263 11.7133 105.41 12.4413 105.41 13.268V13.9H99.8575ZM99.8495 12.508H103.226C103.226 12.1773 103.164 11.8733 103.042 11.596C102.919 11.3187 102.732 11.1 102.482 10.94C102.236 10.78 101.927 10.7 101.554 10.7C101.191 10.7 100.882 10.788 100.626 10.964C100.375 11.1347 100.183 11.3587 100.05 11.636C99.9162 11.9133 99.8495 12.204 99.8495 12.508Z" fill="#1E1E1E"/>
<defs>
<clipPath id="clip0_3013_70336">
<path d="M0 0H24V24H3C1.34315 24 0 22.6569 0 21V0Z" fill="white"/>
</clipPath>
</defs>
</svg>
